<svg xmlns="http://www.w3.org/2000/svg" viewBox="0 0 14.61 16.85"><defs><style>.cls-1{fill:#ffa077;}.cls-2{fill:#24584d;}</style></defs><g id="Calque_2" data-name="Calque 2"><g id="Calque_1-2" data-name="Calque 1"><path class="cls-1" d="M14,2.67c.26-.34.83,0,.57.35-.49.69-1,1.33-1.52,2-.26.34-.83,0-.56-.34C13,4,13.49,3.32,14,2.67Z"/><path class="cls-2" d="M6.79,13.53a8,8,0,0,1,.13,1.34V15a1.17,1.17,0,0,0,1.17,1.17h.69a1.21,1.21,0,0,0,1.17-1H7.85a.33.33,0,0,1,0-.65h2a.15.15,0,0,1,.12,0,6.39,6.39,0,0,1,.56-2.59l0,0s.18-.22.22-.22A3.18,3.18,0,0,0,12,9.08,3.46,3.46,0,0,0,5,9.08a3.28,3.28,0,0,0,1.18,2.59l0,0,.18.22a3.18,3.18,0,0,1,.34,1s.08,0,.12,0h2a.32.32,0,0,1,0,.64ZM12.66,9a3.87,3.87,0,0,1-1.38,3.12l-.16.18a7.71,7.71,0,0,0-.42,2.51v.08a1.94,1.94,0,0,1-1.94,1.94H8.07a1.94,1.94,0,0,1-1.94-1.94v-.08a7.65,7.65,0,0,0-.43-2.51l-.14-.12A4.06,4.06,0,0,1,4.15,9a4.26,4.26,0,0,1,8.51,0Z"/><path class="cls-1" d="M8.69.35V2.86a.32.32,0,0,1-.64,0V.35A.32.32,0,1,1,8.69.35Z"/><path class="cls-1" d="M4.51,4.7c.26.34-.3.64-.57.34L2.43,3c-.23-.35.34-.69.56-.35C3.52,3.32,4,4,4.51,4.7Z"/><path class="cls-1" d="M2.79,8.38c.42,0,.42.72,0,.64C1.94,9,1.11,8.84.3,8.76c-.4,0-.4-.69,0-.65C1.15,8.19,1.94,8.28,2.79,8.38Z"/></g></g></svg>