<svg xmlns="http://www.w3.org/2000/svg" xmlns:xlink="http://www.w3.org/1999/xlink" viewBox="0 0 19 19"><defs><style>.cls-1{fill:#fff;}.cls-2{mask:url(#mask);}.cls-3{fill:#3b5998;fill-rule:evenodd;}</style><mask id="mask" x="0" y="0" width="19" height="19" maskUnits="userSpaceOnUse"><g id="mask0"><path class="cls-1" d="M0,0H19V19H0Z"/></g></mask></defs><g id="Calque_2" data-name="Calque 2"><g id="Calque_1-2" data-name="Calque 1"><path class="cls-1" d="M17.13,1.87H2V17H17.13Z"/><g class="cls-2"><path class="cls-3" d="M11.55,6.71h-.94c-.38,0-.46.15-.46.54V8.1h1.4L11.4,9.5H10.15v4.89H8.06V9.5H6.66V8.1h1.4V6.49c0-1.24.65-1.88,2.11-1.88h1.38ZM14.71,0H4.29A4.29,4.29,0,0,0,0,4.29V14.71A4.29,4.29,0,0,0,4.29,19H14.71A4.29,4.29,0,0,0,19,14.71V4.29A4.29,4.29,0,0,0,14.71,0Z"/></g></g></g></svg>