<svg xmlns="http://www.w3.org/2000/svg" viewBox="0 0 70 46.2"><defs><style>.cls-1{fill:#dc1b29;}.cls-2{fill:#2c3281;}.cls-3{fill:#fff;}</style></defs><g id="Calque_2" data-name="Calque 2"><g id="FLAG"><g id="ENDLAND"><rect class="cls-1" width="70" height="46.2"/><rect class="cls-2" y="27.69" width="30.34" height="18.51"/><rect class="cls-2" x="39.48" y="27.69" width="30.52" height="18.51"/><rect class="cls-2" width="30.34" height="18.5"/><rect class="cls-2" x="39.48" width="30.52" height="18.5"/><polygon class="cls-3" points="30.34 27.69 30.34 46.2 27.11 46.2 27.11 33.06 5.2 46.2 0 46.2 0 38.67 12.92 30.93 0 30.93 0 27.69 30.34 27.69"/><polygon class="cls-3" points="70 0 70 7.33 56.78 15.26 70 15.26 70 18.5 39.48 18.5 39.48 0 42.71 0 42.71 13.06 64.46 0.01 64.47 0 70 0"/><polygon class="cls-3" points="70 30.93 56.93 30.93 70 38.77 70 46.2 64.64 46.2 42.71 33.04 42.71 46.2 39.48 46.2 39.48 27.69 70 27.69 70 30.93"/><polygon class="cls-1" points="70 0 70 2.36 48.49 15.26 42.69 15.26 43.3 14.9 68.12 0.01 68.14 0 70 0"/><polygon class="cls-1" points="27.11 30.93 1.96 46.2 0 46.2 0 43.77 21.32 30.93 27.11 30.93"/><polygon class="cls-3" points="30.34 0 30.34 18.5 0 18.5 0 15.26 13.06 15.26 0 7.43 0 0 5.37 0 27.11 13.04 27.11 0 30.34 0"/><polygon class="cls-1" points="70 40.62 70 44.09 48.5 31.2 48.05 30.93 53.84 30.93 70 40.62"/><polygon class="cls-1" points="21.93 15.26 16.14 15.26 0 5.58 0 2.11 21.93 15.26"/></g></g></g></svg>