<svg xmlns="http://www.w3.org/2000/svg" viewBox="0 0 19 19"><defs><style>.cls-1{fill:#0077b5;fill-rule:evenodd;}.cls-2{fill:#fff;}</style></defs><g id="Calque_2" data-name="Calque 2"><g id="Calque_1-2" data-name="Calque 1"><path class="cls-1" d="M4.29,0A4.29,4.29,0,0,0,0,4.29V14.71A4.29,4.29,0,0,0,4.29,19H14.71A4.29,4.29,0,0,0,19,14.71V4.29A4.29,4.29,0,0,0,14.71,0Z"/><path class="cls-2" d="M14.11,13.1h0V9.77c0-1.62-.35-2.88-2.25-2.88a2,2,0,0,0-1.78,1h0V7H8.25V13.1h1.87v-3c0-.79.15-1.55,1.13-1.55s1,.9,1,1.6V13.1Z"/><path class="cls-2" d="M5.19,7H7.07V13.1H5.19Z"/><path class="cls-2" d="M6.13,4A1.1,1.1,0,1,0,7.22,5.12,1.09,1.09,0,0,0,6.13,4Z"/></g></g></svg>