<svg xmlns="http://www.w3.org/2000/svg" viewBox="0 0 143.24 28.2"><defs><style>.cls-1{fill:#8d93a8;}.cls-2{fill:#ffa077;}.cls-3{fill:#24584d;}.cls-4{fill:none;stroke:#8d93a8;}</style></defs><g id="Calque_2" data-name="Calque 2"><g id="Calque_1-2" data-name="Calque 1"><path class="cls-1" d="M113,14.5a3.29,3.29,0,0,1,1.91,1.08,3.05,3.05,0,0,1,.68,2,2.94,2.94,0,0,1-1.2,2.51,6,6,0,0,1-3.53.86h-5.8V8.4h5.44a5.4,5.4,0,0,1,3.26.85,2.77,2.77,0,0,1,1.17,2.39A3,3,0,0,1,113,14.5Zm-6.61-5v4.57h4a4.08,4.08,0,0,0,2.36-.58,2,2,0,0,0,.82-1.71,1.94,1.94,0,0,0-.82-1.69,4.07,4.07,0,0,0-2.36-.59Zm4.45,10.4a4.69,4.69,0,0,0,2.56-.57,2,2,0,0,0,.86-1.8c0-1.58-1.14-2.36-3.42-2.36h-4.45V19.9Zm7.52-12.26h1.28V21h-1.28Zm8.71,13.45a4.94,4.94,0,0,1-2.47-.61,4.63,4.63,0,0,1-1.73-1.73,5.22,5.22,0,0,1,0-5,4.51,4.51,0,0,1,1.73-1.71,5.29,5.29,0,0,1,4.93,0,4.39,4.39,0,0,1,1.71,1.71,5.22,5.22,0,0,1,0,5,4.51,4.51,0,0,1-1.71,1.73A4.93,4.93,0,0,1,127.06,21.09Zm0-1.13a3.59,3.59,0,0,0,1.8-.45,3.27,3.27,0,0,0,1.26-1.32,4.34,4.34,0,0,0,0-3.85,3.16,3.16,0,0,0-1.26-1.3,3.5,3.5,0,0,0-1.8-.46,3.57,3.57,0,0,0-1.82.46,3.29,3.29,0,0,0-1.26,1.3,4.34,4.34,0,0,0,0,3.85,3.41,3.41,0,0,0,1.26,1.32A3.67,3.67,0,0,0,127.06,20Zm16.18-8.43v8.32a4.76,4.76,0,0,1-1.19,3.56,4.82,4.82,0,0,1-3.55,1.17,8,8,0,0,1-2.5-.39,5.18,5.18,0,0,1-1.91-1.07l.65-1a4.93,4.93,0,0,0,1.66,1,6.51,6.51,0,0,0,2.07.34,3.57,3.57,0,0,0,2.64-.85A3.45,3.45,0,0,0,142,20V18.8a3.85,3.85,0,0,1-1.57,1.37,4.75,4.75,0,0,1-2.12.47,5.07,5.07,0,0,1-2.43-.58,4.47,4.47,0,0,1-1.71-1.63,4.71,4.71,0,0,1-.61-2.4,4.55,4.55,0,0,1,.61-2.37A4.3,4.3,0,0,1,135.84,12a5,5,0,0,1,2.43-.58,4.75,4.75,0,0,1,2.18.49,3.83,3.83,0,0,1,1.56,1.4V11.53Zm-4.84,8a3.92,3.92,0,0,0,1.85-.44,3.18,3.18,0,0,0,1.28-1.24A3.5,3.5,0,0,0,142,16a3.4,3.4,0,0,0-.47-1.78A3,3,0,0,0,140.25,13a3.75,3.75,0,0,0-1.85-.45,3.92,3.92,0,0,0-1.86.43,3.26,3.26,0,0,0-1.28,1.22,3.83,3.83,0,0,0,0,3.6,3.39,3.39,0,0,0,1.28,1.24A3.93,3.93,0,0,0,138.4,19.51Z"/><path class="cls-2" d="M12.37,6.05H.91a.84.84,0,0,0-.35.07,1,1,0,0,0-.3.2.77.77,0,0,0-.19.3A.8.8,0,0,0,0,7l0,7.32a1,1,0,0,0,.14.49,1,1,0,0,0,.39.34,1,1,0,0,0,.51.07A.93.93,0,0,0,1.53,15L6,11.06a.94.94,0,0,1,.63-.24.92.92,0,0,1,.63.24L11.75,15a1,1,0,0,0,.47.22.9.9,0,0,0,.9-.41,1,1,0,0,0,.14-.49l0-7.32A.9.9,0,0,0,13,6.32.91.91,0,0,0,12.37,6.05Z"/><path class="cls-2" d="M11.88,19.2,7.19,15.11a.89.89,0,0,0-1.1,0L1.4,19.2c-.75.65-.26,2.1.71,1.88a26.86,26.86,0,0,0,4.17-2,.85.85,0,0,1,.72,0,26.61,26.61,0,0,0,4.18,2C12.15,21.3,12.63,19.85,11.88,19.2Z"/><path class="cls-2" d="M6.65,22.6h0A1.9,1.9,0,0,0,5.3,25.84,1.9,1.9,0,1,0,6.65,22.6Z"/><path class="cls-3" d="M29.74,11.54q-.58-.15-1.35-.3a8.51,8.51,0,0,0-1.67-.16,7.75,7.75,0,0,0-1,.07,4.9,4.9,0,0,0-.85.16V22.87H20.62V8.55a23.34,23.34,0,0,1,2.72-.76,15.16,15.16,0,0,1,3.49-.36c.23,0,.51,0,.83,0l1,.11c.33,0,.66.11,1,.18a4,4,0,0,1,.84.24Z"/><path class="cls-3" d="M30.31,15.42a9.3,9.3,0,0,1,.62-3.52,7.49,7.49,0,0,1,1.63-2.52,6.64,6.64,0,0,1,2.31-1.52,7.11,7.11,0,0,1,2.69-.52,6.72,6.72,0,0,1,5.1,2,8.13,8.13,0,0,1,1.87,5.79c0,.25,0,.53,0,.82s0,.56-.06.79H34.71a2.92,2.92,0,0,0,.38,1.19,2.78,2.78,0,0,0,.86.91,4.94,4.94,0,0,0,2.93.78,12.92,12.92,0,0,0,2.32-.21,9.1,9.1,0,0,0,1.85-.53l.58,3.48a6.38,6.38,0,0,1-.92.34,11.36,11.36,0,0,1-1.28.31c-.47.09-1,.16-1.51.21a14.66,14.66,0,0,1-1.62.09,9.39,9.39,0,0,1-3.55-.61A6.86,6.86,0,0,1,32.25,21a6.56,6.56,0,0,1-1.47-2.49A9.9,9.9,0,0,1,30.31,15.42Zm10.07-1.64a4.21,4.21,0,0,0-.19-1.06,2.63,2.63,0,0,0-.49-.92,2.53,2.53,0,0,0-.83-.66,2.58,2.58,0,0,0-1.25-.26,2.92,2.92,0,0,0-1.24.24,2.48,2.48,0,0,0-.86.65,2.62,2.62,0,0,0-.53.93,5.34,5.34,0,0,0-.27,1.08Z"/><path class="cls-3" d="M82,7.75c-.86,2.92-1.77,5.65-2.71,8.2s-2,5-3.08,7.42A16.23,16.23,0,0,1,75,25.57a6.74,6.74,0,0,1-1.32,1.5,4.73,4.73,0,0,1-1.63.86,7.54,7.54,0,0,1-2.11.27,9.43,9.43,0,0,1-3.26-.59l.75-3.43a6.36,6.36,0,0,0,2.27.41A2.4,2.4,0,0,0,71.46,24a5,5,0,0,0,1.05-1.71Q71,19.38,69.57,15.8a81.07,81.07,0,0,1-2.76-8h4.55c.19.75.41,1.56.67,2.43s.53,1.75.82,2.64.59,1.76.88,2.61.59,1.61.86,2.3c.25-.7.51-1.46.78-2.31s.53-1.71.79-2.6.51-1.77.76-2.64.45-1.69.65-2.43Z"/><path class="cls-3" d="M65.41,19.1a6.17,6.17,0,0,1-1.34.36,7.59,7.59,0,0,1-1.42.14,2,2,0,0,1-1.91-.81,4.22,4.22,0,0,1-.48-2.16V11.3h5.15V7.74H60.26V6.93a6.94,6.94,0,0,0-13.87,0V22.87h4.29V11.3h3.41V7.74H50.68V6.93a2.65,2.65,0,1,1,5.29,0v9.76a12.07,12.07,0,0,0,.27,2.68,4.92,4.92,0,0,0,1,2.05,4.57,4.57,0,0,0,1.84,1.32,7.63,7.63,0,0,0,2.91.48A10.77,10.77,0,0,0,64.29,23,11.86,11.86,0,0,0,66,22.44Z"/><line class="cls-4" x1="93.5" y1="5" x2="93.5" y2="25"/><path class="cls-1" d="M113,14.5a3.29,3.29,0,0,1,1.91,1.08,3.05,3.05,0,0,1,.68,2,2.94,2.94,0,0,1-1.2,2.51,6,6,0,0,1-3.53.86h-5.8V8.4h5.44a5.4,5.4,0,0,1,3.26.85,2.77,2.77,0,0,1,1.17,2.39A3,3,0,0,1,113,14.5Zm-6.61-5v4.57h4a4.08,4.08,0,0,0,2.36-.58,2,2,0,0,0,.82-1.71,1.94,1.94,0,0,0-.82-1.69,4.07,4.07,0,0,0-2.36-.59Zm4.45,10.4a4.69,4.69,0,0,0,2.56-.57,2,2,0,0,0,.86-1.8c0-1.58-1.14-2.36-3.42-2.36h-4.45V19.9Zm7.52-12.26h1.28V21h-1.28Zm8.71,13.45a4.94,4.94,0,0,1-2.47-.61,4.63,4.63,0,0,1-1.73-1.73,5.22,5.22,0,0,1,0-5,4.51,4.51,0,0,1,1.73-1.71,5.29,5.29,0,0,1,4.93,0,4.39,4.39,0,0,1,1.71,1.71,5.22,5.22,0,0,1,0,5,4.51,4.51,0,0,1-1.71,1.73A4.93,4.93,0,0,1,127.06,21.09Zm0-1.13a3.59,3.59,0,0,0,1.8-.45,3.27,3.27,0,0,0,1.26-1.32,4.34,4.34,0,0,0,0-3.85,3.16,3.16,0,0,0-1.26-1.3,3.5,3.5,0,0,0-1.8-.46,3.57,3.57,0,0,0-1.82.46,3.29,3.29,0,0,0-1.26,1.3,4.34,4.34,0,0,0,0,3.85,3.41,3.41,0,0,0,1.26,1.32A3.67,3.67,0,0,0,127.06,20Zm16.18-8.43v8.32a4.76,4.76,0,0,1-1.19,3.56,4.82,4.82,0,0,1-3.55,1.17,8,8,0,0,1-2.5-.39,5.18,5.18,0,0,1-1.91-1.07l.65-1a4.93,4.93,0,0,0,1.66,1,6.51,6.51,0,0,0,2.07.34,3.57,3.57,0,0,0,2.64-.85A3.45,3.45,0,0,0,142,20V18.8a3.85,3.85,0,0,1-1.57,1.37,4.75,4.75,0,0,1-2.12.47,5.07,5.07,0,0,1-2.43-.58,4.47,4.47,0,0,1-1.71-1.63,4.71,4.71,0,0,1-.61-2.4,4.55,4.55,0,0,1,.61-2.37A4.3,4.3,0,0,1,135.84,12a5,5,0,0,1,2.43-.58,4.75,4.75,0,0,1,2.18.49,3.83,3.83,0,0,1,1.56,1.4V11.53Zm-4.84,8a3.92,3.92,0,0,0,1.85-.44,3.18,3.18,0,0,0,1.28-1.24A3.5,3.5,0,0,0,142,16a3.4,3.4,0,0,0-.47-1.78A3,3,0,0,0,140.25,13a3.75,3.75,0,0,0-1.85-.45,3.92,3.92,0,0,0-1.86.43,3.26,3.26,0,0,0-1.28,1.22,3.83,3.83,0,0,0,0,3.6,3.39,3.39,0,0,0,1.28,1.24A3.93,3.93,0,0,0,138.4,19.51Z"/><path class="cls-2" d="M12.37,6.05H.91a.84.84,0,0,0-.35.07,1,1,0,0,0-.3.2.77.77,0,0,0-.19.3A.8.8,0,0,0,0,7l0,7.32a1,1,0,0,0,.14.49,1,1,0,0,0,.39.34,1,1,0,0,0,.51.07A.93.93,0,0,0,1.53,15L6,11.06a.94.94,0,0,1,.63-.24.92.92,0,0,1,.63.24L11.75,15a1,1,0,0,0,.47.22.9.9,0,0,0,.9-.41,1,1,0,0,0,.14-.49l0-7.32A.9.9,0,0,0,13,6.32.91.91,0,0,0,12.37,6.05Z"/><path class="cls-2" d="M11.88,19.2,7.19,15.11a.89.89,0,0,0-1.1,0L1.4,19.2c-.75.65-.26,2.1.71,1.88a26.86,26.86,0,0,0,4.17-2,.85.85,0,0,1,.72,0,26.61,26.61,0,0,0,4.18,2C12.15,21.3,12.63,19.85,11.88,19.2Z"/><path class="cls-2" d="M6.65,22.6h0A1.9,1.9,0,0,0,5.3,25.84,1.9,1.9,0,1,0,6.65,22.6Z"/><path class="cls-3" d="M29.74,11.54q-.58-.15-1.35-.3a8.51,8.51,0,0,0-1.67-.16,7.75,7.75,0,0,0-1,.07,4.9,4.9,0,0,0-.85.16V22.87H20.62V8.55a23.34,23.34,0,0,1,2.72-.76,15.16,15.16,0,0,1,3.49-.36c.23,0,.51,0,.83,0l1,.11c.33,0,.66.11,1,.18a4,4,0,0,1,.84.24Z"/><path class="cls-3" d="M30.31,15.42a9.3,9.3,0,0,1,.62-3.52,7.49,7.49,0,0,1,1.63-2.52,6.64,6.64,0,0,1,2.31-1.52,7.11,7.11,0,0,1,2.69-.52,6.72,6.72,0,0,1,5.1,2,8.13,8.13,0,0,1,1.87,5.79c0,.25,0,.53,0,.82s0,.56-.06.79H34.71a2.92,2.92,0,0,0,.38,1.19,2.78,2.78,0,0,0,.86.91,4.94,4.94,0,0,0,2.93.78,12.92,12.92,0,0,0,2.32-.21,9.1,9.1,0,0,0,1.85-.53l.58,3.48a6.38,6.38,0,0,1-.92.34,11.36,11.36,0,0,1-1.28.31c-.47.09-1,.16-1.51.21a14.66,14.66,0,0,1-1.62.09,9.39,9.39,0,0,1-3.55-.61A6.86,6.86,0,0,1,32.25,21a6.56,6.56,0,0,1-1.47-2.49A9.9,9.9,0,0,1,30.31,15.42Zm10.07-1.64a4.21,4.21,0,0,0-.19-1.06,2.63,2.63,0,0,0-.49-.92,2.53,2.53,0,0,0-.83-.66,2.58,2.58,0,0,0-1.25-.26,2.92,2.92,0,0,0-1.24.24,2.48,2.48,0,0,0-.86.65,2.62,2.62,0,0,0-.53.93,5.34,5.34,0,0,0-.27,1.08Z"/><path class="cls-3" d="M82,7.75c-.86,2.92-1.77,5.65-2.71,8.2s-2,5-3.08,7.42A16.23,16.23,0,0,1,75,25.57a6.74,6.74,0,0,1-1.32,1.5,4.73,4.73,0,0,1-1.63.86,7.54,7.54,0,0,1-2.11.27,9.43,9.43,0,0,1-3.26-.59l.75-3.43a6.36,6.36,0,0,0,2.27.41A2.4,2.4,0,0,0,71.46,24a5,5,0,0,0,1.05-1.71Q71,19.38,69.57,15.8a81.07,81.07,0,0,1-2.76-8h4.55c.19.75.41,1.56.67,2.43s.53,1.75.82,2.64.59,1.76.88,2.61.59,1.61.86,2.3c.25-.7.51-1.46.78-2.31s.53-1.71.79-2.6.51-1.77.76-2.64.45-1.69.65-2.43Z"/><path class="cls-3" d="M65.41,19.1a6.17,6.17,0,0,1-1.34.36,7.59,7.59,0,0,1-1.42.14,2,2,0,0,1-1.91-.81,4.22,4.22,0,0,1-.48-2.16V11.3h5.15V7.74H60.26V6.93a6.94,6.94,0,0,0-13.87,0V22.87h4.29V11.3h3.41V7.74H50.68V6.93a2.65,2.65,0,1,1,5.29,0v9.76a12.07,12.07,0,0,0,.27,2.68,4.92,4.92,0,0,0,1,2.05,4.57,4.57,0,0,0,1.84,1.32,7.63,7.63,0,0,0,2.91.48A10.77,10.77,0,0,0,64.29,23,11.86,11.86,0,0,0,66,22.44Z"/><line class="cls-4" x1="93.5" y1="5" x2="93.5" y2="25"/></g></g></svg>