<svg xmlns="http://www.w3.org/2000/svg" viewBox="0 0 17 14.39"><defs><style>.cls-1{fill:#24584d;}.cls-2{fill:#ffa077;}</style></defs><g id="Calque_2" data-name="Calque 2"><g id="Calque_1-2" data-name="Calque 1"><path class="cls-1" d="M13.1.81a1,1,0,0,0-.33-.58A1,1,0,0,0,12.14,0L12,0a.93.93,0,0,0-.35.13.9.9,0,0,0-.28.27,1,1,0,0,0-.16.35,1.2,1.2,0,0,0,0,.38l.08.49L1.53,5.86A1,1,0,0,0,1,5.68a.93.93,0,0,0-.54.14,1,1,0,0,0-.37.42A.94.94,0,0,0,0,6.79l.26,1.7a1,1,0,0,0,.32.59,1,1,0,0,0,.63.23h.15a.87.87,0,0,0,.4-.16,1,1,0,0,0,.29-.31h0l1.7,4.86A.94.94,0,0,0,4,14a1.15,1.15,0,0,0,.33.25,1.07,1.07,0,0,0,.4.1,1,1,0,0,0,.41-.06.84.84,0,0,0,.35-.21,1.11,1.11,0,0,0,.25-.32,1.12,1.12,0,0,0,.1-.4A1,1,0,0,0,5.75,13L4.4,9.14l8.24,1.09,0,.18a1,1,0,0,0,.4.64,1,1,0,0,0,.73.16h0a1,1,0,0,0,.63-.4,1,1,0,0,0,.17-.73ZM1.28,8.73H1.13A.35.35,0,0,1,1,8.66a.4.4,0,0,1-.1-.12A.34.34,0,0,1,.84,8.4L.58,6.7a.76.76,0,0,1,0-.15.24.24,0,0,1,.07-.13.27.27,0,0,1,.11-.1.24.24,0,0,1,.14-.05H1a.35.35,0,0,1,.22.08l.07,0v0a.3.3,0,0,1,.08.18l.26,1.7v.06a.28.28,0,0,1,0,.09.45.45,0,0,1-.11.19A.54.54,0,0,1,1.28,8.73Zm2.48.32L5.2,13.19a.52.52,0,0,1,0,.18.61.61,0,0,1-.05.18.49.49,0,0,1-.11.14.42.42,0,0,1-.16.09h0a.57.57,0,0,1-.18,0,.41.41,0,0,1-.18-.05.36.36,0,0,1-.14-.11.49.49,0,0,1-.1-.15L2.71,8.91,3.28,9Zm8.78.58L4,8.5,2.18,8.25V8.2h0L1.92,6.5a.83.83,0,0,0,0-.15h0l8.27-3.59L11,8.23a.31.31,0,0,0,.09.18.34.34,0,0,0,.19.07h.05a.31.31,0,0,0,.19-.11.33.33,0,0,0,.05-.22l-.84-5.63.63-.28.2,1.24Zm1.17,1a.39.39,0,0,1-.3-.07.38.38,0,0,1-.11-.11.34.34,0,0,1-.06-.15l-.9-5.55-.49-3h0l-.11-.72a.38.38,0,0,1,0-.15.26.26,0,0,1,.07-.15.22.22,0,0,1,.11-.1.35.35,0,0,1,.14-.06h.08a.43.43,0,0,1,.26.09.41.41,0,0,1,.13.24L14,10.17a.44.44,0,0,1-.07.3.41.41,0,0,1-.26.17Z"/><path class="cls-2" d="M14.47,3.93a.26.26,0,0,0,.17-.05L15.94,3A.3.3,0,0,0,16,2.93a.21.21,0,0,0,0-.11.2.2,0,0,0,0-.11.49.49,0,0,0,0-.11.6.6,0,0,0-.08-.08l-.11,0h-.11a.19.19,0,0,0-.1,0l-1.31.87a.33.33,0,0,0-.11.15.36.36,0,0,0,0,.18.33.33,0,0,0,.11.15.34.34,0,0,0,.17.05Z"/><path class="cls-2" d="M16.78,7l-1.52-.38a.29.29,0,0,0-.22,0,.31.31,0,0,0-.13.17.28.28,0,0,0,0,.22.24.24,0,0,0,.18.13l1.52.38h.07a.32.32,0,0,0,.19-.07.27.27,0,0,0,.1-.18.29.29,0,0,0-.05-.2A.3.3,0,0,0,16.78,7Z"/><path class="cls-2" d="M16.11,5.46a.3.3,0,0,0,.2-.1.29.29,0,0,0,.06-.22.26.26,0,0,0-.1-.19.28.28,0,0,0-.21-.07L14.87,5a.3.3,0,0,0-.19.1.29.29,0,0,0,0,.4.3.3,0,0,0,.2.08h0Z"/></g></g></svg>