<svg xmlns="http://www.w3.org/2000/svg" viewBox="0 0 20 17.82"><defs><style>.cls-1{fill:#24584d;}.cls-2{fill:#ffa077;}</style></defs><g id="Calque_2" data-name="Calque 2"><g id="Calque_1-2" data-name="Calque 1"><path class="cls-1" d="M1.49,16.1A.32.32,0,0,1,1.23,16a.36.36,0,0,1-.1-.28l.42-4.49A6.21,6.21,0,0,1,0,7.16C0,3.21,3.94,0,8.79,0s8.79,3.21,8.79,7.16-3.95,7.15-8.79,7.15A11.07,11.07,0,0,1,6.16,14L1.65,16.07A.41.41,0,0,1,1.49,16.1ZM8.79.73C4.34.73.72,3.61.72,7.16a5.56,5.56,0,0,0,1.47,3.69.33.33,0,0,1,.09.27l-.37,4L6,13.27a.33.33,0,0,1,.24,0,9.7,9.7,0,0,0,2.57.34c4.44,0,8.06-2.89,8.06-6.43S13.23.73,8.79.73Z"/><path class="cls-1" d="M18.71,17.82a.42.42,0,0,1-.15,0l-3.67-1.69a8.6,8.6,0,0,1-2.14.27,7.91,7.91,0,0,1-5.7-2.26.36.36,0,0,1,0-.51.35.35,0,0,1,.51,0,7.2,7.2,0,0,0,5.18,2,8.13,8.13,0,0,0,2.08-.27.31.31,0,0,1,.25,0l3.22,1.48L18,13.68a.34.34,0,0,1,.09-.27,4.48,4.48,0,0,0,1.18-3A4.82,4.82,0,0,0,17,6.51a.36.36,0,0,1,0-.63.39.39,0,0,1,.36,0A5.55,5.55,0,0,1,20,10.44a5.18,5.18,0,0,1-1.26,3.33l.33,3.65a.37.37,0,0,1-.09.28.4.4,0,0,1-.27.12Z"/><path class="cls-2" d="M4.91,8.35A1.07,1.07,0,1,0,3.84,7.28,1.07,1.07,0,0,0,4.91,8.35Z"/><path class="cls-2" d="M12.67,8.35A1.07,1.07,0,1,0,11.6,7.28,1.07,1.07,0,0,0,12.67,8.35Z"/><path class="cls-2" d="M8.79,8.35A1.07,1.07,0,1,0,7.72,7.28,1.07,1.07,0,0,0,8.79,8.35Z"/></g></g></svg>