<svg xmlns="http://www.w3.org/2000/svg" viewBox="0 0 82 28.2"><defs><style>.cls-1{fill:#ffa077;}.cls-2{fill:#fff;}</style></defs><g id="Calque_2" data-name="Calque 2"><g id="Calque_1-2" data-name="Calque 1"><path class="cls-1" d="M12.37,6.05H.91a.84.84,0,0,0-.35.07.84.84,0,0,0-.29.2.69.69,0,0,0-.2.3A.8.8,0,0,0,0,7l0,7.32a.93.93,0,0,0,.14.49,1,1,0,0,0,.39.34,1,1,0,0,0,.51.07A.93.93,0,0,0,1.53,15L6,11.06a.94.94,0,0,1,.63-.24.92.92,0,0,1,.63.24L11.75,15a1,1,0,0,0,.47.22.9.9,0,0,0,.9-.41.93.93,0,0,0,.14-.49l0-7.32A.9.9,0,0,0,13,6.32.93.93,0,0,0,12.37,6.05Z"/><path class="cls-1" d="M11.88,19.2,7.19,15.11a.89.89,0,0,0-1.1,0L1.4,19.2c-.75.65-.26,2.1.71,1.88a26.86,26.86,0,0,0,4.17-2A.94.94,0,0,1,6.64,19a.9.9,0,0,1,.36.08,26.86,26.86,0,0,0,4.17,2C12.15,21.3,12.63,19.85,11.88,19.2Z"/><path class="cls-1" d="M6.65,22.6h0A1.9,1.9,0,0,0,5.3,25.84,1.9,1.9,0,1,0,6.65,22.6Z"/><path class="cls-2" d="M29.74,11.54q-.58-.15-1.35-.3a8.51,8.51,0,0,0-1.67-.16,7.75,7.75,0,0,0-1,.07,4.9,4.9,0,0,0-.85.16V22.87H20.62V8.55a23.34,23.34,0,0,1,2.72-.76,15.16,15.16,0,0,1,3.49-.36c.23,0,.51,0,.83,0s.66.07,1,.12.65.1,1,.17a4.22,4.22,0,0,1,.84.24Z"/><path class="cls-2" d="M30.31,15.42a9.3,9.3,0,0,1,.62-3.52,7.62,7.62,0,0,1,1.62-2.52,6.77,6.77,0,0,1,2.32-1.52,7.11,7.11,0,0,1,2.69-.52,6.72,6.72,0,0,1,5.1,2,8.13,8.13,0,0,1,1.87,5.79c0,.25,0,.53,0,.82s0,.56-.06.79H34.71a2.92,2.92,0,0,0,.38,1.19,2.78,2.78,0,0,0,.86.91,5,5,0,0,0,2.93.78,12.07,12.07,0,0,0,2.32-.22,8.48,8.48,0,0,0,1.85-.52l.58,3.48a6.38,6.38,0,0,1-.92.34,11.36,11.36,0,0,1-1.28.31c-.47.09-1,.16-1.51.21a14.66,14.66,0,0,1-1.62.09,9.39,9.39,0,0,1-3.55-.61A6.78,6.78,0,0,1,32.25,21a6.56,6.56,0,0,1-1.47-2.49A9.9,9.9,0,0,1,30.31,15.42Zm10.07-1.64a4.21,4.21,0,0,0-.19-1.06,2.63,2.63,0,0,0-.49-.92,2.53,2.53,0,0,0-.83-.66,2.58,2.58,0,0,0-1.25-.26,2.92,2.92,0,0,0-1.24.24,2.48,2.48,0,0,0-.86.65,2.62,2.62,0,0,0-.53.93,5.18,5.18,0,0,0-.27,1.08Z"/><path class="cls-2" d="M82,7.75c-.86,2.92-1.77,5.65-2.71,8.2s-2,5-3.08,7.42A16.23,16.23,0,0,1,75,25.57a6.74,6.74,0,0,1-1.32,1.5,4.73,4.73,0,0,1-1.63.86,7.54,7.54,0,0,1-2.11.27,9.43,9.43,0,0,1-3.26-.59l.75-3.43a6.86,6.86,0,0,0,1.18.32,6.59,6.59,0,0,0,1.09.09A2.4,2.4,0,0,0,71.46,24a5,5,0,0,0,1.05-1.71Q71,19.38,69.57,15.8a81.07,81.07,0,0,1-2.76-8h4.55c.19.75.41,1.56.67,2.43s.53,1.75.82,2.64.59,1.76.88,2.61.59,1.61.86,2.3c.25-.7.51-1.46.78-2.31s.53-1.71.79-2.6.51-1.77.76-2.64.45-1.69.65-2.43Z"/><path class="cls-2" d="M65.41,19.1a6.33,6.33,0,0,1-1.34.36,7.59,7.59,0,0,1-1.42.14,2,2,0,0,1-1.92-.81,4.32,4.32,0,0,1-.47-2.16V11.3h5.15V7.74H60.26V6.93a6.94,6.94,0,0,0-13.87,0V22.87h4.29V11.3h3.41V7.74H50.68V6.93a2.65,2.65,0,1,1,5.29,0v9.76a12.07,12.07,0,0,0,.27,2.68,4.92,4.92,0,0,0,1,2.05,4.57,4.57,0,0,0,1.84,1.32,7.63,7.63,0,0,0,2.91.48A10.77,10.77,0,0,0,64.29,23,11.86,11.86,0,0,0,66,22.44Z"/></g></g></svg>