<svg xmlns="http://www.w3.org/2000/svg" viewBox="0 0 17 14.17"><defs><style>.cls-1{fill:#24584d;}.cls-2{fill:#ffa077;}</style></defs><g id="Calque_2" data-name="Calque 2"><g id="Calque_1-2" data-name="Calque 1"><path class="cls-1" d="M5.76,12.85H2.59a.27.27,0,0,1-.29-.29v-10a.28.28,0,0,1,.29-.29H5.76a.28.28,0,0,1,.29.29v10A.28.28,0,0,1,5.76,12.85Zm-2.87-.59H5.46V2.89H2.89v9.37Z"/><path class="cls-1" d="M5.67,4.92h-3a.3.3,0,0,1,0-.6h3a.28.28,0,0,1,.29.3A.28.28,0,0,1,5.67,4.92Z"/><path class="cls-1" d="M5.67,11.18h-3a.3.3,0,0,1,0-.59h3a.28.28,0,0,1,.29.3A.27.27,0,0,1,5.67,11.18Z"/><path class="cls-2" d="M10.32,12.85H7.16a.28.28,0,0,1-.3-.29V.3a.28.28,0,0,1,.3-.3h3.16a.28.28,0,0,1,.3.3V12.56A.28.28,0,0,1,10.32,12.85Zm-2.86-.59H10V.6H7.46Z"/><path class="cls-2" d="M10.14,3.13H7.46a.28.28,0,0,1-.3-.3.28.28,0,0,1,.3-.3h2.68a.28.28,0,0,1,.3.3A.28.28,0,0,1,10.14,3.13Z"/><path class="cls-2" d="M10.14,10.59H7.46a.3.3,0,0,1,0-.6h2.68a.3.3,0,0,1,0,.6Z"/><path class="cls-1" d="M14.91,12.85H11.75a.28.28,0,0,1-.3-.29v-10a.28.28,0,0,1,.3-.29h3.16a.28.28,0,0,1,.3.29v10A.29.29,0,0,1,14.91,12.85Zm-2.86-.59h2.56V2.89H12.05Z"/><path class="cls-1" d="M14.91,4.92h-3a.3.3,0,0,1,0-.6h3a.3.3,0,0,1,0,.6Z"/><path class="cls-1" d="M14.91,11.18h-3a.3.3,0,1,1,0-.59h3a.3.3,0,1,1,0,.59Z"/><path class="cls-1" d="M16.7,14.17H.3a.3.3,0,0,1,0-.6H16.7a.3.3,0,0,1,0,.6Z"/></g></g></svg>