<svg xmlns="http://www.w3.org/2000/svg" xmlns:xlink="http://www.w3.org/1999/xlink" viewBox="0 0 119 21.34"><defs><style>.cls-1{fill:none;}.cls-2{clip-path:url(#clip-path);}.cls-3{fill:#fff;}</style><clipPath id="clip-path"><rect class="cls-1" width="119" height="21.34"/></clipPath></defs><g id="Calque_2" data-name="Calque 2"><g id="Calque_1-2" data-name="Calque 1"><g class="cls-2"><path class="cls-3" d="M116.07,8.3H110.7v4h5.37ZM119,.3h-8.3v4H119Zm-8.89,0h-4.3V21h4.3ZM94.84.3H90.55V9.63L92,13.52c.74,2,1.54,2.78,2.81,2.78V.3ZM85.8,21V11.71l-1.48-4C83.58,5.81,82.78,5,81.51,5V21Zm9,0V16.89c-1,0-2.34-.38-3.26-2.81L86.4.3H81.51V4.45c1,0,2.34.35,3.26,2.81L90,21Zm-23.45-3.7a2.12,2.12,0,0,1-2.08-2.22V6.22A2.12,2.12,0,0,1,71.39,4V0A6.28,6.28,0,0,0,65,6.22v8.9a6.28,6.28,0,0,0,6.38,6.22v-4Zm7-11.12A6.27,6.27,0,0,0,72,0V4a2.12,2.12,0,0,1,2.07,2.22v8.9A2.11,2.11,0,0,1,72,17.34v4a6.27,6.27,0,0,0,6.37-6.22ZM61.86.3h-4.3V21h4.3Zm-7,0H41.84v4H54.91ZM50.52,4.89H46.23V21.05h4.29Zm-14,13.6L35.72,15h-2.6l1.33-5.75C33.86,6.85,33,5,31.16,5L27.43,21h4.32l.6-2.55ZM42,21,37.18.3H32.26l-.95,4.15c1.24,0,2.78.74,3.62,4.41L37.68,21ZM27.66.3H14.59v4H27.66ZM23.27,4.89H19V21.05h4.29ZM13,5.93A5.93,5.93,0,0,0,7,0V4A2,2,0,0,1,8.74,6.22ZM6.37,17.34A2.21,2.21,0,0,1,4.3,15.12l-4.3.2a6.14,6.14,0,0,0,6.37,6Zm.6,4A6.43,6.43,0,0,0,13.49,15,5.63,5.63,0,0,0,9.4,9.22c-.72-.24-2.35-.83-3-1.07C5.48,7.8,4.56,7.23,4.56,6A1.86,1.86,0,0,1,6.37,4V0A6,6,0,0,0,.24,6.05,6,6,0,0,0,4.54,12L7,12.89c1.25.48,2,1.19,2,2.29A2,2,0,0,1,7,17.34v4Z"/></g></g></g></svg>