<svg xmlns="http://www.w3.org/2000/svg" viewBox="0 0 17 17"><defs><style>.cls-1{fill:#24584d;}.cls-2{fill:#ffa077;}</style></defs><g id="Calque_2" data-name="Calque 2"><g id="Calque_1-2" data-name="Calque 1"><path class="cls-1" d="M13.74,6.6a.35.35,0,0,0-.34-.34H10.13a.34.34,0,0,0-.34.34v3.75H7.21V8.64a.34.34,0,0,0-.34-.34H3.6a.34.34,0,0,0-.34.34v2.67H.34a.34.34,0,0,0-.34.34v5A.34.34,0,0,0,.34,17H16.66a.34.34,0,0,0,.34-.34V9.39a.34.34,0,0,0-.34-.34H13.74ZM.68,12H3.26v4.33H.68Zm5.85,4.33H3.94c0-.75,0,2.72,0-7.34H6.53ZM7.21,11H9.79v5.29H7.21Zm3.26-4.09h2.59v9.38H10.47Zm5.85,2.79v6.59H13.74V9.73Z"/><path class="cls-2" d="M1.48,7.32A1.48,1.48,0,0,0,3,5.84,1.52,1.52,0,0,0,2.7,5L3.92,3.64a1.48,1.48,0,0,0,1.7-.2l1,.73a1.32,1.32,0,0,0-.1.53,1.48,1.48,0,1,0,3,0A1.37,1.37,0,0,0,9.31,4l1.26-1.22a1.43,1.43,0,0,0,.79.23,1.42,1.42,0,0,0,.92-.33l1.41,1.11a1.37,1.37,0,0,0-.14.61,1.5,1.5,0,1,0,.56-1.15L12.7,2.1a1.44,1.44,0,0,0,.14-.62,1.48,1.48,0,0,0-3,0,1.49,1.49,0,0,0,.21.76L8.84,3.46a1.44,1.44,0,0,0-.79-.24,1.46,1.46,0,0,0-1,.39L6,2.88a1.62,1.62,0,0,0,.1-.54,1.48,1.48,0,0,0-3,0,1.53,1.53,0,0,0,.26.85L2.19,4.55a1.42,1.42,0,0,0-.71-.19,1.48,1.48,0,0,0,0,3Zm14.35-3a.8.8,0,1,1-.8-.8A.8.8,0,0,1,15.83,4.35ZM11.36.68a.8.8,0,1,1-.8.8A.8.8,0,0,1,11.36.68ZM8.05,3.9a.8.8,0,1,1-.8.8.77.77,0,0,1,.14-.45h0A.79.79,0,0,1,8.05,3.9ZM4.63,1.54a.8.8,0,1,1-.8.8A.8.8,0,0,1,4.63,1.54ZM1.48,5a.8.8,0,1,1-.8.8A.8.8,0,0,1,1.48,5Z"/></g></g></svg>