<svg xmlns="http://www.w3.org/2000/svg" viewBox="0 0 19 19"><defs><style>.cls-1{fill:#3cf;}.cls-2{fill:#fff;}</style></defs><g id="Calque_2" data-name="Calque 2"><g id="Calque_1-2" data-name="Calque 1"><path class="cls-1" d="M14.72,19H4.28A4.28,4.28,0,0,1,0,14.72V4.28A4.28,4.28,0,0,1,4.28,0H14.72A4.28,4.28,0,0,1,19,4.28V14.72A4.28,4.28,0,0,1,14.72,19Z"/><path class="cls-2" d="M14.31,6.5a3.68,3.68,0,0,1-.7.2c-.1,0-.2,0-.3,0h0a.88.88,0,0,0,.25-.2A2.75,2.75,0,0,0,14,6.1c0-.1.1-.25.15-.36v0h0a1.78,1.78,0,0,1-.45.2,3.78,3.78,0,0,1-.71.2h-.1a1.27,1.27,0,0,0-.6-.4,1.67,1.67,0,0,0-.51-.16H11l-.46.16a1.37,1.37,0,0,0-.6.45A2.48,2.48,0,0,0,9.53,7a.85.85,0,0,0,0,.35v.3a.45.45,0,0,0,0,.25s0,0,0,0a.87.87,0,0,1-.36,0,7.51,7.51,0,0,1-1-.2,7.08,7.08,0,0,1-.9-.4A6.7,6.7,0,0,1,6.5,6.8a4.32,4.32,0,0,1-.7-.65,1.39,1.39,0,0,1-.26-.3s0,0-.1,0a1.85,1.85,0,0,0-.2.75v.46a2.21,2.21,0,0,0,.25.75,2.78,2.78,0,0,0,.31.4l.25.26H6a3.19,3.19,0,0,1-.71-.21s0,0,0,.06v.25a3.68,3.68,0,0,0,.2.7A2.32,2.32,0,0,0,6,9.93a1.74,1.74,0,0,0,.75.35.85.85,0,0,1-.35.05A.85.85,0,0,1,6,10.28s-.1,0,0,.1l.15.3a1.93,1.93,0,0,0,.5.61,1.81,1.81,0,0,0,1,.4h.15a5.27,5.27,0,0,1-.55.35,3.3,3.3,0,0,1-1,.36,3.9,3.9,0,0,1-.81.1H4.94a0,0,0,0,0,0,.1c.1.05.2.15.3.2a6.07,6.07,0,0,0,1,.4,5.37,5.37,0,0,0,1.56.26h.51a2.43,2.43,0,0,0,.6-.05,7.5,7.5,0,0,0,1-.26A8.19,8.19,0,0,0,11,12.6a4.8,4.8,0,0,0,1-.81,2.17,2.17,0,0,0,.3-.35,4.46,4.46,0,0,0,.6-.91,6.32,6.32,0,0,0,.41-.95,5.62,5.62,0,0,0,.25-1,3.89,3.89,0,0,0,0-.76v-.3s0,0,.05-.1.25-.2.35-.3a1.9,1.9,0,0,0,.3-.36,1,1,0,0,0,.2-.3s.06,0,0,0S14.36,6.5,14.31,6.5Z"/></g></g></svg>