<svg xmlns="http://www.w3.org/2000/svg" viewBox="0 0 1439.98 607.5"><defs><style>.cls-1{fill:#ffe4d9;}</style></defs><g id="Calque_2" data-name="Calque 2"><g id="Calque_1-2" data-name="Calque 1"><path class="cls-1" d="M1440,532.37a173.22,173.22,0,0,1-168.39-43.82,170.72,170.72,0,0,1-50.49-121.11V168.72h106.54V367.44a65.2,65.2,0,0,0,19.27,46.24,66.12,66.12,0,0,0,93.07,0Z"/><path class="cls-1" d="M983,606V172.15a171.92,171.92,0,1,1,343.83,0H1220.58a65.64,65.64,0,1,0-131.27,0V606Z"/><path class="cls-1" d="M0,343.63a173.22,173.22,0,0,1,168.39,43.82,170.75,170.75,0,0,1,50.48,121.11V607.5H112.34V508.56a65.2,65.2,0,0,0-19.27-46.24,66.12,66.12,0,0,0-93.07,0Z"/></g></g></svg>